<svg width="215" height="214" viewBox="0 0 215 214" fill="none" xmlns="http://www.w3.org/2000/svg">
<path d="M81.7594 140.576C78.4402 138.124 73.7548 138.818 71.2945 142.125C68.8342 145.432 69.5304 150.099 72.8497 152.549C82.5493 159.711 94.4113 163.951 107.229 163.951C120.047 163.951 131.909 159.711 141.608 152.549C144.928 150.099 145.624 145.432 143.163 142.125C140.703 138.818 136.018 138.124 132.699 140.576C125.433 145.939 116.664 149.046 107.229 149.046C97.7938 149.046 89.0249 145.939 81.7594 140.576Z" fill="#FFFFF4"/>
<path fill-rule="evenodd" clip-rule="evenodd" d="M107.229 0C100.166 0 93.7482 2.01531 86.7863 5.38793C80.0563 8.64818 72.2816 13.4548 62.5705 19.4587L41.9568 32.203C32.7681 37.8838 25.4102 42.4326 19.7391 46.759C13.8665 51.2391 9.35587 55.8019 6.0977 61.7314C2.84631 67.6485 1.38221 73.9444 0.680184 81.3864C-9.75796e-05 88.5982 -9.73754e-05 97.4178 2.3726e-06 108.478V124.503C-9.73754e-05 143.42 -0.000197686 158.353 1.52315 170.028C3.08591 182.006 6.36951 191.675 13.7888 199.319C21.2421 207 30.727 210.431 42.4688 212.057C53.8489 213.633 68.3829 213.633 86.6995 213.633H127.758C146.075 213.633 160.609 213.633 171.99 212.057C183.731 210.431 193.216 207 200.669 199.319C208.088 191.675 211.372 182.006 212.935 170.028C214.458 158.353 214.458 143.421 214.458 124.503V108.478C214.458 97.4178 214.458 88.5982 213.778 81.3864C213.076 73.9444 211.611 67.6485 208.361 61.7314C205.103 55.8019 200.592 51.2391 194.719 46.759C189.048 42.4326 181.69 37.8839 172.501 32.2031L151.887 19.4586C142.177 13.4548 134.401 8.64808 127.671 5.38793C120.71 2.01531 114.292 0 107.229 0ZM70.1182 32.3344C80.2502 26.0703 87.3743 21.6766 93.3292 18.7918C99.1316 15.9811 103.241 14.9047 107.229 14.9047C111.217 14.9047 115.327 15.9811 121.129 18.7917C127.084 21.6766 134.208 26.0703 144.34 32.3344L164.29 44.668C173.874 50.5933 180.603 54.7632 185.622 58.5922C190.506 62.3178 193.315 65.3923 195.236 68.8878C197.164 72.3958 198.289 76.4972 198.882 82.7809C199.488 89.2153 199.496 97.3354 199.496 108.843V123.957C199.496 143.541 199.481 157.504 198.098 168.108C196.739 178.521 194.179 184.563 189.912 188.96C185.68 193.321 179.917 195.911 169.929 197.295C159.699 198.712 146.206 198.729 127.179 198.729H87.2795C68.2523 198.729 54.76 198.712 44.5297 197.295C34.5413 195.911 28.7787 193.321 24.5459 188.96C20.2789 184.563 17.7194 178.521 16.3606 168.108C14.9771 157.504 14.9622 143.541 14.9622 123.957V108.843C14.9622 97.3354 14.9698 89.2153 15.5768 82.7809C16.1695 76.4972 17.2948 72.3958 19.2223 68.8878C21.1431 65.3923 23.9528 62.3178 28.8364 58.5922C33.8555 54.7632 40.5844 50.5933 50.1686 44.668L70.1182 32.3344Z" fill="#FFFFF4"/>
</svg>
