<svg width="122" height="122" viewBox="0 0 122 122" fill="none" xmlns="http://www.w3.org/2000/svg">
<g clip-path="url(#clip0_768_5692)">
<path d="M6.27429 33.4629V19.8686C6.27429 12.1897 12.1897 6.27429 19.8686 6.27429H33.4629C35.1955 6.27429 36.6 4.86974 36.6 3.13714C36.6 1.40455 35.1955 0 33.4629 0H19.8686C8.72455 0 0 8.72455 0 19.8686V33.4629C0 35.1955 1.40455 36.6 3.13714 36.6C4.86974 36.6 6.27429 35.1955 6.27429 33.4629Z" fill="#317041"/>
<path d="M115.726 33.4629V19.8686C115.726 12.1897 109.81 6.27429 102.131 6.27429H88.5371C86.8045 6.27429 85.4 4.86974 85.4 3.13714C85.4 1.40455 86.8045 0 88.5371 0H102.131C113.275 0 122 8.72455 122 19.8686V33.4629C122 35.1955 120.595 36.6 118.863 36.6C117.13 36.6 115.726 35.1955 115.726 33.4629Z" fill="#317041"/>
<path d="M6.27429 88.5371V102.131C6.27429 109.81 12.1897 115.726 19.8686 115.726H33.4629C35.1955 115.726 36.6 117.13 36.6 118.863C36.6 120.595 35.1955 122 33.4629 122H19.8686C8.72455 122 0 113.275 0 102.131V88.5371C0 86.8045 1.40455 85.4 3.13714 85.4C4.86974 85.4 6.27429 86.8045 6.27429 88.5371Z" fill="#317041"/>
<path d="M115.726 88.5371V102.131C115.726 109.81 109.81 115.726 102.131 115.726H88.5371C86.8045 115.726 85.4 117.13 85.4 118.863C85.4 120.595 86.8045 122 88.5371 122H102.131C113.275 122 122 113.275 122 102.131V88.5371C122 86.8045 120.595 85.4 118.863 85.4C117.13 85.4 115.726 86.8045 115.726 88.5371Z" fill="#317041"/>
<path d="M33.1754 46.0749V54.7941C33.1754 56.5989 34.5409 58.0619 36.2254 58.0619C37.9099 58.0619 39.2754 56.5989 39.2754 54.7941V46.0749C39.2754 44.2701 37.9099 42.807 36.2254 42.807C34.5409 42.807 33.1754 44.2701 33.1754 46.0749Z" fill="#317041"/>
<path d="M83.4736 46.0749V54.7941C83.4736 56.5989 84.8392 58.0619 86.5236 58.0619C88.2081 58.0619 89.5736 56.5989 89.5736 54.7941V46.0749C89.5736 44.2701 88.2081 42.807 86.5236 42.807C84.8392 42.807 83.4736 44.2701 83.4736 46.0749Z" fill="#317041"/>
<path d="M39.5462 90.1014C45.4954 95.6541 52.7007 98.4561 60.9999 98.4561C69.2992 98.4561 76.5044 95.6541 82.4537 90.1014C83.75 88.8916 83.82 86.86 82.6102 85.5638C81.4003 84.2675 79.3687 84.1975 78.0725 85.4073C73.32 89.843 67.6832 92.0351 60.9999 92.0351C54.3167 92.0351 48.6799 89.843 43.9274 85.4073C42.6311 84.1975 40.5995 84.2675 39.3897 85.5638C38.1799 86.86 38.2499 88.8916 39.5462 90.1014Z" fill="#317041"/>
<path d="M61 46.0175V68.4912C61 69.9294 60.2971 70.6316 58.8517 70.6316H56.7193C54.9462 70.6316 53.5088 72.069 53.5088 73.8421C53.5088 75.6152 54.9462 77.0526 56.7193 77.0526H58.8517C63.8416 77.0526 67.4211 73.4774 67.4211 68.4912V46.0175C67.4211 44.2444 65.9837 42.807 64.2105 42.807C62.4374 42.807 61 44.2444 61 46.0175Z" fill="#317041"/>
</g>
<defs>
<clipPath id="clip0_768_5692">
<rect width="122" height="122" fill="white"/>
</clipPath>
</defs>
</svg>
