<svg width="522" height="165" viewBox="0 0 522 165" fill="none" xmlns="http://www.w3.org/2000/svg">
<g clip-path="url(#clip0_768_5632)">
<path d="M194.271 65.325C194.008 65.475 193.783 65.625 193.557 65.8125C192.13 67.3875 190.402 68.6625 188.486 69.525C187.247 70.275 185.82 70.6875 184.355 70.7625C183.829 71.175 183.078 70.7625 182.552 71.175H180.11C179.847 70.9875 179.547 70.95 179.246 70.9875C178.833 71.025 178.42 70.9875 178.082 70.8C177.443 70.6875 176.842 70.5375 176.241 70.35C174.25 69.825 172.447 68.85 170.87 67.5375C167.677 65.0625 165.574 61.4625 164.897 57.4875C164.484 55.2 164.559 52.875 165.123 50.625C164.522 50.55 164.184 51.0375 163.808 51.3375C161.367 53.25 159.789 55.875 157.911 58.275C156.671 59.8875 155.545 61.6125 154.267 63.225C152.99 64.8375 151.713 66.6375 150.436 68.325C148.746 70.575 147.131 72.8625 145.403 75.075C143.712 77.2875 142.21 79.3125 140.632 81.4125C138.829 83.775 137.064 86.175 135.299 88.5375C134.172 90.075 132.97 91.6125 131.843 93.1875C130.19 95.4 128.575 97.65 126.885 99.8625C125.194 102.075 123.579 104.288 121.851 106.463C119.71 109.275 117.682 112.163 115.578 115.013C115.428 115.2 115.316 115.65 114.827 115.538C114.715 115.013 114.677 114.488 114.715 113.963V68.85C114.865 66.4875 114.715 64.0875 114.226 61.7625C113.851 61.3125 114.001 60.75 113.776 60.225C113.663 59.25 113.325 58.3125 112.761 57.4875C111.484 54.7125 109.456 52.3125 106.939 50.55C105.249 49.275 103.333 48.3375 101.267 47.8125C98.4877 46.875 95.5203 46.6875 92.6656 47.2875C91.1631 47.5125 89.6607 47.925 88.2709 48.5625C85.1908 49.95 82.5239 52.125 80.6082 54.9C79.4813 56.5125 78.3169 58.125 77.0774 59.6625C75.4246 61.725 73.8846 63.9 72.307 66C70.504 68.3625 68.7386 70.7625 66.9732 73.125C65.2829 75.45 63.555 77.7 61.8647 80.025C60.7754 81.4875 59.7613 82.95 58.672 84.4125C57.47 86.025 56.1929 87.5625 54.9909 89.175C53.3006 91.425 51.6479 93.7125 49.9576 95.9625L44.8491 102.825C42.7456 105.638 40.6422 108.488 38.5387 111.338C36.8484 113.625 35.083 115.875 33.3927 118.163C30.8009 121.613 28.2842 125.063 25.6925 128.513L20.7343 135.15C18.1049 138.675 15.5131 142.2 12.8838 145.688C10.9306 148.313 9.01491 150.9 7.06168 153.525C4.88308 156.413 2.66692 159.263 0.525883 162.188C0.300511 162.525 -0.26292 162.863 1.41149e-05 163.35C0.225386 163.838 0.82638 163.575 1.23956 163.575H26.2183C28.6223 163.575 28.0964 164.063 29.674 161.813C29.7867 161.625 29.9745 161.438 30.1248 161.25C31.74 159.113 33.3927 156.975 34.9703 154.8C35.9845 153.488 36.9986 152.175 37.9001 150.788C39.027 149.25 40.1914 147.675 41.3558 146.138C43.1588 143.775 44.8867 141.375 46.6897 138.975L51.3849 132.675L55.1787 127.575C56.7939 125.363 58.4466 123.188 60.0617 121.013L65.2078 114.188C66.8229 112.013 68.4381 109.8 70.0908 107.625C71.7436 105.45 73.4338 103.2 75.1241 100.988L82.1107 91.6125C82.7868 90.675 83.4629 89.7375 84.139 88.8L87.3694 84.4875C87.5947 85.05 87.6699 85.65 87.5947 86.25V146.475C87.4445 148.65 87.5947 150.825 87.9328 152.963C88.1206 153.825 88.346 154.688 88.684 155.55C89.7733 158.1 91.6139 160.275 93.9803 161.738C95.3701 162.525 96.835 163.163 98.3751 163.538C98.638 163.688 98.9385 163.763 99.2765 163.763C100.817 163.688 102.282 163.988 103.859 163.575C104.836 163.575 105.812 163.313 106.639 162.825C108.216 162.113 109.606 161.1 110.771 159.825C112.01 158.475 113.024 157.013 114.151 155.588C115.917 153.3 117.607 150.938 119.335 148.575C120.95 146.4 122.565 144.263 124.143 142.088L127.824 137.175L134.585 128.063C136.388 125.625 138.191 123.225 139.994 120.825C141.647 118.65 143.262 116.475 144.914 114.263L151.901 104.888C152.502 104.1 153.178 103.35 153.742 102.488C155.357 100.088 157.197 97.8375 158.85 95.475C160.54 93.075 162.231 90.975 163.883 88.725C164.897 87.375 165.987 86.0625 166.888 84.6375C167.039 84.375 167.151 84.75 167.189 84.9C167.339 85.3875 167.377 85.875 167.301 86.3625V149.775C167.226 150.863 167.339 151.988 167.64 153.038C168.165 155.588 169.442 157.913 171.283 159.788C173.124 161.625 175.452 162.9 178.007 163.463C178.194 163.613 178.42 163.688 178.645 163.688C180.26 163.575 181.876 163.95 183.453 163.463C184.279 163.388 185.068 163.163 185.782 162.788C188.449 161.738 190.703 159.9 192.243 157.5C193.52 155.588 194.233 153.375 194.309 151.088C194.346 122.775 194.346 94.5 194.309 66.1875C194.346 65.925 194.309 65.6625 194.233 65.4L194.271 65.325Z" fill="#317041"/>
<path d="M317.024 87.3375C318.301 85.65 319.653 84 320.93 82.3125C323.672 78.6375 326.414 74.8875 329.156 71.2125C332.424 66.9 335.73 62.625 338.998 58.3125C341.815 54.5625 344.594 50.8125 347.412 47.025C347.449 46.95 347.487 46.875 347.487 46.7625C347.487 46.65 347.487 46.575 347.412 46.5C347.186 46.5 346.961 46.425 346.735 46.425H320.517C320.217 46.425 319.916 46.5 319.653 46.65C319.39 46.8 319.165 47.025 319.015 47.2875C318 48.7875 316.986 50.2875 315.897 51.7875C314.808 53.2875 313.606 54.975 312.441 56.55C310.751 58.95 309.061 61.3125 307.37 63.7125C305.793 65.925 304.178 68.1375 302.562 70.35L296.891 78.15C295.538 79.9875 294.186 81.825 292.871 83.6625C291.932 84.9375 291.031 86.25 290.129 87.5625C288.74 89.5875 287.312 91.4625 285.96 93.4125C284.57 95.3625 283.18 97.5375 281.678 99.525C280.626 100.95 279.537 102.413 278.523 103.838C276.983 106.013 275.368 108.15 273.827 110.363C272.588 112.125 271.236 113.85 269.921 115.538C268.606 117.263 267.254 118.913 265.977 120.638C264.813 122.213 263.46 123.638 262.258 125.175C261.507 126.15 260.643 127.013 259.667 127.763C259.028 128.288 258.465 128.025 258.314 127.238C258.314 126.825 258.314 126.413 258.314 126V63.7125C258.352 61.875 258.239 60.0375 257.901 58.2375C257.413 55.725 256.436 53.325 254.971 51.225C253.995 49.8 252.718 48.6375 251.178 47.8125C249.675 46.9875 247.985 46.575 246.257 46.575C241.749 46.3875 237.204 46.5375 232.735 46.5C232.171 46.9875 232.321 47.625 232.321 48.2625C232.396 65.0625 232.321 81.8625 232.396 98.625C232.509 116.85 232.509 135.038 232.321 153.263C232.209 154.538 232.321 155.85 232.659 157.088C233.448 161.813 236.115 164.1 240.698 164.625C243.027 164.963 245.393 164.963 247.722 164.625C248.548 164.625 249.337 164.25 250.126 164.175C251.553 163.988 252.905 163.575 254.22 162.975C256.699 161.925 258.953 160.5 260.906 158.7C262.934 156.975 264.813 155.138 266.578 153.15C267.517 151.988 268.494 150.825 269.433 149.663C270.86 147.863 272.325 146.063 273.752 144.225C275.63 141.825 277.471 139.35 279.312 136.95L283.594 131.288L289.04 124.088C290.242 122.513 291.519 120.975 292.684 119.363C293.998 117.563 295.388 115.8 296.703 114C298.017 112.2 299.332 110.513 300.722 108.788C302.112 107.063 303.314 105.338 304.628 103.613C306.92 100.613 309.248 97.5375 311.577 94.4625C313.38 92.025 315.146 89.625 316.949 87.2625L317.024 87.3375Z" fill="#317041"/>
<path d="M436.396 89.775C437.11 87.75 437.823 85.7625 438.537 83.7375C439.326 81.5625 440.152 79.3875 440.941 77.175C441.467 75.675 441.993 74.175 442.556 72.6375C443.495 70.0875 444.509 67.5375 445.411 64.9125C445.974 63.3375 446.5 61.725 447.101 60.15C447.89 57.975 448.679 55.8375 449.468 53.7C450.256 51.5625 450.933 49.6875 451.684 47.6625C452.135 46.425 452.135 46.3875 450.895 46.3875H434.443C433.429 46.3875 433.354 46.3875 433.015 47.4C432.452 48.9375 431.964 50.5125 431.363 52.05C430.762 53.5875 430.161 55.4625 429.485 57.1125C428.921 58.5 428.47 59.9625 427.945 61.3875C427.344 63.15 426.705 64.8375 426.104 66.6C425.541 68.175 424.94 69.75 424.376 71.325L422.122 77.55L419.869 83.775C419.118 85.875 418.329 88.0125 417.577 90.15C416.976 91.8 416.413 93.4875 415.812 95.175C415.211 96.8625 414.723 98.25 414.159 99.7875C413.408 101.925 412.619 104.025 411.83 106.125C411.192 107.813 410.628 109.5 409.952 111.188C409.389 112.575 408.863 114.038 408.412 115.463C407.811 117.225 407.173 118.913 406.572 120.675C406.046 122.25 405.407 123.825 404.844 125.4C404.093 127.5 403.341 129.563 402.59 131.663C401.839 133.725 401.088 135.825 400.336 137.888L398.045 144.225L396.28 149.25C395.716 150.825 395.153 152.4 394.589 153.975C394.026 155.55 393.388 156.975 392.824 158.588C392.261 160.163 391.735 161.85 391.134 163.463C390.645 164.738 390.608 164.738 391.998 164.738H408.3C408.6 164.775 408.938 164.738 409.164 164.513C409.426 164.325 409.614 164.063 409.689 163.763C410.027 162.6 410.441 161.513 410.854 160.425C411.38 158.85 411.943 157.238 412.507 155.663C413.258 153.6 414.122 151.538 414.835 149.438C415.549 147.338 416.3 145.35 417.014 143.288C417.803 141.075 418.629 138.9 419.418 136.725C420.207 134.55 420.92 132.638 421.672 130.613C422.385 128.588 423.174 126.375 423.925 124.238C424.489 122.7 425.052 121.163 425.578 119.625C426.292 117.488 427.156 115.388 427.907 113.288C428.47 111.75 428.996 110.175 429.56 108.638C430.574 106.088 431.4 103.463 432.377 100.913C433.015 99.3375 433.429 97.725 434.03 96.15C434.856 94.0125 435.607 91.8375 436.396 89.6625V89.775Z" fill="#317041"/>
<path d="M232.359 34.725C231.72 33.225 231.157 31.725 230.331 30.3C228.828 27.4125 227.1 24.6375 225.222 22.0125C223.044 19.125 220.64 16.425 217.973 13.9875C214.855 11.1375 211.399 8.70001 207.718 6.63751C206.742 6.03751 205.69 5.51251 204.638 5.02501C203.211 4.42501 201.821 3.75001 200.356 3.22501C199.117 2.73751 197.877 2.32501 196.6 1.98751C195.811 1.83751 195.06 1.61251 194.271 1.38751C192.731 0.900012 191.153 0.600012 189.538 0.487512C188.9 0.0375122 188.111 0.487512 187.51 0.0750122C183.228 -0.112488 178.946 -0.112488 174.664 0.0750122C174.063 0.525012 173.236 0.0750122 172.635 0.487512C171.283 0.487512 169.893 0.712512 168.616 1.16251C167.189 1.50001 165.761 1.91251 164.372 2.40001C162.456 3.07501 160.54 3.67501 158.662 4.53751C156.822 5.36251 155.319 6.18751 153.629 7.05001C152.84 7.46251 152.802 7.72501 153.253 8.58751C154.305 10.65 155.319 12.75 156.371 14.85C157.235 16.6125 157.197 16.575 158.888 15.5625C161.029 14.25 163.282 13.1625 165.649 12.3375C166.7 11.9625 167.752 11.5875 168.841 11.2875C170.081 10.8 171.396 10.5375 172.71 10.425C173.161 10.0125 173.8 10.425 174.25 10.0125L175.265 9.93751C176.053 9.45001 177.03 10.0125 177.819 9.48751H184.655C185.444 9.97501 186.421 9.41251 187.172 9.90001L187.66 9.97501C188.111 10.35 188.749 9.97501 189.238 10.3875C191.379 10.3875 193.257 11.25 195.285 11.775C197.238 12.3375 199.154 13.0875 200.957 13.9875C204.375 15.6375 207.53 17.7 210.423 20.175C213.991 23.2125 217.109 26.8125 219.588 30.7875C220.677 32.4375 221.616 34.2 222.367 36C222.968 37.2375 223.457 38.5125 223.87 39.825C223.983 40.3875 224.396 40.3875 224.997 40.125C225.635 39.825 226.274 39.4125 226.837 39C228.64 37.9125 230.368 36.75 232.134 35.5875C232.209 35.55 232.284 35.5125 232.359 35.4375C232.434 35.3625 232.472 35.2875 232.472 35.2125C232.472 35.1375 232.472 35.025 232.472 34.95C232.472 34.875 232.434 34.7625 232.396 34.6875L232.359 34.725Z" fill="#317041"/>
<path d="M211.888 40.0125C208.131 31.725 201.333 25.2 192.881 21.75C191.604 21.225 190.252 20.8125 188.937 20.5125C187.397 20.1 185.819 19.8 184.242 19.575C183.228 19.05 182.138 19.6875 181.237 19.125H178.307C177.293 19.65 176.204 19.0125 175.227 19.575C174.25 19.65 173.274 19.8 172.297 20.0625C171.321 20.2125 170.381 20.4375 169.442 20.775C167.865 21.2625 166.325 21.8625 164.822 22.575C163.47 23.2125 162.193 24 160.878 24.7125C160.202 25.0875 160.165 25.35 160.54 26.0625L164.672 34.0875C164.86 34.5375 165.048 34.9875 165.686 34.6125C166.7 34.0125 167.639 33.3375 168.691 32.775C170.757 31.6875 172.936 30.9375 175.189 30.525C175.828 30.0375 176.654 30.525 177.255 30.075H182.364C182.927 30.4875 183.641 30.075 184.204 30.525C185.895 30.825 187.51 31.3125 189.05 32.025C191.829 33.15 194.346 34.8 196.487 36.9C198.854 39.15 200.769 41.85 202.084 44.85C202.685 46.0125 203.098 47.2875 203.286 48.6C203.661 49.2375 203.286 50.025 203.774 50.625C203.887 51.2625 204 51.9 204 52.575C204 53.025 204.15 53.4 204.751 53.175C205.427 52.8375 206.065 52.425 206.666 51.9C208.883 50.2875 211.136 48.75 213.352 47.1375C213.503 47.0625 213.653 46.9125 213.728 46.7625C213.803 46.6125 213.878 46.425 213.878 46.2375C213.878 45.7875 213.803 45.3375 213.653 44.8875C213.052 43.275 212.489 41.625 211.775 40.0125H211.888Z" fill="#317041"/>
<path d="M173.987 66.3375C175.753 67.4625 177.744 68.1375 179.847 68.2875H182.589C184.204 68.2875 185.82 67.875 187.247 67.0875C189.538 66.075 191.454 64.3875 192.806 62.2875C193.332 61.4625 193.97 60.675 193.482 59.5875C193.257 59.0625 193.107 58.5 192.844 58.0125C191.228 54.6 188.637 51.7125 185.369 49.7625C183.603 48.675 181.65 47.8875 179.622 47.475C179.171 47.1 178.532 47.475 178.082 47.0625H173.236C172.785 47.4375 172.147 47.0625 171.696 47.475C171.02 47.3625 170.532 48 169.893 48C169.668 48 169.405 48.075 169.217 48.225C169.029 48.375 168.879 48.5625 168.804 48.7875C168.278 49.7625 167.902 50.85 167.752 51.9375C167.301 53.7375 167.301 55.575 167.752 57.375C167.902 58.2 168.165 59.025 168.503 59.775C169.593 62.475 171.508 64.7625 174.025 66.3L173.987 66.3375Z" fill="#317041"/>
<path d="M521.174 88.0875C520.235 87.975 519.371 87.6 518.432 87.4125C517.004 87.0375 515.577 86.7375 514.112 86.5125C513.661 86.1375 512.985 86.5125 512.534 86.1L511.069 86.025C510.656 85.8375 510.168 85.7625 509.717 85.8375C509.154 85.7625 508.59 85.9875 508.064 85.6125L507.05 85.5375C506.262 85.05 505.285 85.6125 504.459 85.125H492.551C491.763 85.65 490.786 85.05 489.96 85.5375L488.945 85.6125C488.495 85.9875 487.819 85.6125 487.368 86.025L485.452 86.1375C485.152 86.4 484.701 86.2875 484.363 86.55C483.799 86.55 483.086 86.475 482.635 86.7375C481.734 87.1125 480.794 87.375 479.818 87.4875C478.466 87.9 477.076 88.275 475.724 88.725C473.808 89.4 471.892 90.1875 470.014 91.05C467.009 92.475 464.079 94.0875 461.3 95.925C459.722 96.9375 458.295 98.0625 456.792 99.1875C454.576 100.875 452.473 102.75 450.557 104.775C448.867 106.575 447.214 108.488 445.711 110.438C443.308 113.55 441.166 116.887 439.326 120.375C438.086 122.775 436.96 125.213 436.02 127.725C435.457 128.963 435.081 130.275 434.818 131.588C434.518 131.888 434.631 132.337 434.405 132.637C434.48 133.537 433.879 134.25 433.842 135.112C433.466 135.562 433.616 136.162 433.391 136.65C433.541 137.85 432.94 138.9 432.865 140.1C432.715 142.763 432.715 145.463 432.865 148.125C433.053 148.8 432.865 149.55 433.316 150.15C433.617 151.763 434.105 153.337 434.856 154.8C435.758 156.787 437.035 158.55 438.65 159.975C440.227 161.438 442.068 162.562 444.059 163.312C445.749 163.987 447.514 164.437 449.317 164.7C451.008 165.15 452.698 164.85 454.388 164.888C455.215 165.038 456.041 164.962 456.83 164.7L457.844 164.625C458.22 164.288 458.783 164.55 459.159 164.213C459.91 164.1 460.699 163.987 461.412 163.762C463.14 163.387 464.831 162.788 466.446 162C469.714 160.5 472.756 158.588 475.498 156.225C477.639 154.388 479.668 152.438 481.546 150.338C482.597 149.138 483.574 147.938 484.551 146.663C484.663 146.475 484.889 146.288 485.001 146.4C485.152 146.513 485.114 146.888 485.001 147.188C484.588 148.65 484.25 150.187 483.762 151.575C483.274 152.962 482.935 154.5 482.447 155.925C481.996 157.35 481.621 158.85 481.208 160.313C480.907 161.438 480.644 162.563 480.381 163.688C479.893 164.7 480.494 164.925 481.395 164.925H496.571C496.909 164.925 497.247 164.85 497.51 164.663V163.65C497.697 162.975 497.51 162.225 497.96 161.625C498.111 161.062 498.186 160.463 498.223 159.863C498.223 159.45 498.111 158.962 498.449 158.625C498.561 157.612 498.937 156.6 499.125 155.625C499.5 153.75 499.989 151.875 500.552 150C500.815 149.175 500.965 148.313 501.228 147.488C501.829 145.463 502.43 143.475 503.031 141.45C503.444 140.1 503.858 138.713 504.271 137.363C504.684 136.013 505.097 134.775 505.548 133.5C506.111 131.887 506.637 130.237 507.238 128.625C507.839 127.012 508.515 125.625 509.004 124.012C509.492 122.437 510.243 120.825 510.731 119.175C511.22 117.525 512.009 116.175 512.497 114.6C512.985 113.025 513.699 111.375 514.262 109.763C514.826 108.15 515.502 106.387 516.14 104.737C516.704 103.237 517.267 101.737 517.793 100.237C518.319 98.7375 518.995 97.125 519.596 95.5875C520.385 93.525 521.099 91.425 521.887 89.3625C522.188 88.5 522.038 88.1625 521.174 88.0875ZM499.05 100.425C498.636 101.625 498.223 102.825 497.81 104.025C497.059 106.05 496.27 108.075 495.519 110.138C494.955 111.638 494.467 113.137 493.904 114.637C493.115 116.7 492.326 118.762 491.537 120.862C490.223 124.425 488.645 127.913 486.729 131.213C485.039 134.1 483.123 136.875 481.02 139.425C479.254 141.563 477.264 143.513 475.123 145.2C473.094 146.888 470.841 148.238 468.437 149.213C467.497 149.7 466.483 150 465.432 150.15C464.906 150.6 464.154 150.15 463.629 150.563C462.877 150.638 462.164 150.638 461.412 150.563C460.811 150.113 459.985 150.563 459.384 150.15C457.844 149.963 456.417 149.25 455.365 148.088C454.05 146.738 453.186 145.012 452.923 143.137C452.36 141.187 452.66 139.2 452.698 137.25C452.698 137.025 452.773 136.8 452.923 136.613L452.999 136.125C453.374 135.487 452.999 134.7 453.449 134.1C453.675 132.525 454.088 130.95 454.689 129.45C455.665 126.6 456.943 123.825 458.483 121.238C460.248 118.125 462.351 115.238 464.755 112.575C466.371 110.775 468.098 109.087 469.939 107.55C473.658 104.362 477.902 101.887 482.485 100.237C483.386 99.825 484.363 99.6 485.339 99.525C486.091 99.525 486.804 98.925 487.631 99.0375C488.344 98.55 489.246 99.1125 489.96 98.625H494.204C494.993 99.1125 495.97 98.55 496.758 99.0375C497.434 99.075 498.111 99.225 498.787 99.4125C499.35 99.675 499.463 99.8625 499.275 100.425H499.237H499.05Z" fill="#317041"/>
<path d="M392.073 121.013C392.486 119.738 392.711 118.425 392.749 117.112C393.162 116.287 392.749 115.35 393.2 114.562C393.35 112.237 393.35 109.875 393.2 107.55C392.711 106.763 393.2 105.825 392.749 105V104.55C392.411 104.062 392.599 103.462 392.298 103.012C392.298 102.75 392.298 102.525 392.223 102.263C391.585 100.388 390.796 98.625 389.819 96.9C388.429 94.5 386.589 92.4375 384.41 90.75C382.945 89.5875 381.368 88.65 379.677 87.9375C378.4 87.375 377.086 86.85 375.733 86.4375C374.419 86.025 373.066 85.725 371.714 85.5C371.301 85.2 370.813 85.3125 370.362 85.275C369.911 85.275 369.198 85.425 368.709 85.05C365.704 84.9 362.737 85.05 359.769 85.05C359.131 85.5 358.305 85.05 357.704 85.4625C356.464 85.4625 355.337 86.175 354.06 86.0625C353.985 86.0625 353.872 86.0625 353.835 86.1375C352.896 86.5125 351.919 86.8125 350.905 86.9625C350.116 87.1875 349.29 87.4125 348.576 87.7125C346.773 88.425 344.97 89.1 343.242 89.9625C341.064 91.0125 338.96 92.2125 336.932 93.4875C333.739 95.5125 330.809 97.875 328.105 100.5C325.626 102.937 323.372 105.563 321.344 108.413C319.578 110.925 318 113.512 316.573 116.212C315.446 118.312 314.507 120.487 313.718 122.737C313.193 123.937 312.779 125.212 312.554 126.487C312.253 126.787 312.404 127.237 312.141 127.537C312.141 127.912 312.066 128.25 311.991 128.625C311.615 129.9 311.314 131.175 311.089 132.488C310.601 133.275 311.089 134.25 310.638 135.075V142.575C310.901 143.4 310.638 144.338 311.089 145.125C311.277 146.588 311.69 148.013 312.291 149.4C313.418 152.288 315.108 154.913 317.324 157.125C318.714 158.55 320.292 159.75 321.982 160.762C323.747 161.812 325.626 162.638 327.616 163.275C329.006 163.8 330.434 164.138 331.898 164.213C332.424 164.625 333.176 164.213 333.739 164.625C337.42 164.813 341.101 164.813 344.782 164.625C345.383 164.175 346.21 164.625 346.811 164.213C347.862 164.213 348.914 164.025 349.966 163.725C350.98 163.575 351.994 163.35 352.971 163.013C354.661 162.488 356.314 161.888 358.004 161.25C360.333 160.313 362.587 159.225 364.728 157.988C368.334 155.925 371.714 153.45 374.794 150.637C377.987 147.712 380.842 144.487 383.321 140.962C385.462 137.925 387.302 134.7 388.805 131.287C389.631 129.337 390.458 127.388 391.134 125.363C391.585 123.975 391.96 122.55 392.223 121.088L392.073 121.013ZM373.405 117.9C373.329 118.463 373.254 119.025 373.142 119.587C372.691 120.487 372.39 121.5 372.24 122.512C371.602 124.5 370.888 126.45 370.061 128.362C369.16 130.425 368.071 132.45 366.869 134.4C364.69 137.962 362.061 141.225 359.056 144.15C357.065 146.1 354.774 147.712 352.295 148.987C350.717 149.737 349.102 150.338 347.412 150.75C345.308 151.238 343.129 151.313 340.988 151.088C339.148 150.9 337.42 150.3 335.88 149.325C333.138 147.638 331.185 144.937 330.471 141.825C329.983 139.537 329.833 137.138 329.983 134.813V133.688C330.171 133.013 330.02 132.263 330.434 131.663C330.358 130.65 331.072 129.75 331.035 128.738C331.297 128.438 331.147 127.95 331.448 127.687C331.485 126.937 331.711 126.225 332.049 125.55C333.701 120.975 335.955 116.588 338.735 112.575C340.763 109.688 343.13 107.063 345.759 104.738C347.712 102.975 349.966 101.588 352.37 100.575C354.098 99.8625 355.901 99.3375 357.741 99C358.868 98.775 359.995 98.6625 361.159 98.7C365.178 98.9625 368.822 100.2 371.301 103.65C371.789 104.25 372.165 104.925 372.465 105.675C372.691 106.163 372.916 106.613 373.066 107.138C373.329 107.625 373.179 108.225 373.517 108.675C374.043 111.75 374.006 114.9 373.442 117.938L373.405 117.9Z" fill="#317041"/>
</g>
<defs>
<clipPath id="clip0_768_5632">
<rect width="522" height="165" fill="white"/>
</clipPath>
</defs>
</svg>
