<svg width="265" height="265" viewBox="0 0 265 265" fill="none" xmlns="http://www.w3.org/2000/svg">
<path d="M132.5 33.125V99.375M160.104 60.7292L132.5 33.125L104.896 60.7292M64.2993 99.3791C68.8812 103.425 71.7708 109.344 71.7708 115.938C71.7708 128.134 61.8838 138.021 49.6875 138.021C43.094 138.021 37.1754 135.131 33.1291 130.549M64.2993 99.3791C65.6034 99.375 66.9871 99.375 68.4583 99.375H88.3333M64.2993 99.3791C54.6399 99.409 49.3447 99.6613 45.1827 101.782C41.0274 103.899 37.6491 107.277 35.532 111.433C33.4113 115.595 33.159 120.89 33.1291 130.549M33.1291 130.549C33.125 131.853 33.125 133.238 33.125 134.708V196.542C33.125 198.012 33.125 199.397 33.1291 200.701M33.1291 200.701C37.1754 196.119 43.094 193.229 49.6875 193.229C61.8838 193.229 71.7708 203.116 71.7708 215.313C71.7708 221.905 68.8812 227.825 64.2993 231.871M33.1291 200.701C33.159 210.36 33.4113 215.656 35.532 219.818C37.6491 223.972 41.0274 227.351 45.1827 229.468C49.3447 231.589 54.6399 231.841 64.2993 231.871M64.2993 231.871C65.6034 231.875 66.9871 231.875 68.4583 231.875H196.542C198.012 231.875 199.397 231.875 200.701 231.871M200.701 231.871C196.119 227.825 193.229 221.905 193.229 215.313C193.229 203.116 203.116 193.229 215.312 193.229C221.908 193.229 227.828 196.121 231.875 200.705M200.701 231.871C210.36 231.841 215.656 231.589 219.817 229.468C223.972 227.351 227.351 223.972 229.468 219.818C231.588 215.656 231.845 210.361 231.875 200.705M231.875 200.705C231.879 199.4 231.875 198.015 231.875 196.542V134.708C231.875 133.238 231.875 131.853 231.871 130.549M231.871 130.549C227.825 135.131 221.905 138.021 215.312 138.021C203.116 138.021 193.229 128.134 193.229 115.938C193.229 109.344 196.119 103.425 200.701 99.3791M231.871 130.549C231.841 120.89 231.589 115.595 229.468 111.433C227.351 107.277 223.972 103.899 219.817 101.782C215.656 99.6613 210.36 99.409 200.701 99.3791M200.701 99.3791C199.397 99.375 198.012 99.375 196.542 99.375H176.667M154.583 165.625C154.583 177.822 144.697 187.708 132.5 187.708C120.303 187.708 110.417 177.822 110.417 165.625C110.417 153.428 120.303 143.542 132.5 143.542C144.697 143.542 154.583 153.428 154.583 165.625Z" stroke="#317041" stroke-width="5" stroke-linecap="round" stroke-linejoin="round"/>
</svg>
