<svg width="755" height="725" viewBox="0 0 755 725" fill="none" xmlns="http://www.w3.org/2000/svg">
<g opacity="0.55">
<path d="M509.813 475.61C509.813 595.105 413.01 691.921 293.531 691.921C174.052 691.921 77.2484 595.105 77.2484 475.61C77.2484 418.417 99.4248 366.458 135.68 327.706C175.174 285.59 231.238 259.175 293.531 259.175C413.01 259.175 509.813 355.991 509.813 475.486V475.61Z" stroke="#317041" stroke-width="3" stroke-miterlimit="10"/>
<path d="M463.592 352.627L601.011 247.96C604.873 244.97 608.237 241.232 610.604 236.871L610.978 236.123C623.436 213.57 621.318 185.783 605.496 165.348L577.339 129.213C569.49 119.121 555.661 115.756 543.95 121.239L524.016 130.584C516.167 134.322 509.44 139.929 504.456 147.156L406.656 288.083" stroke="#317041" stroke-width="3" stroke-miterlimit="10"/>
<path d="M153.994 314.498L30.653 183.291L9.7224 174.444C-5.97552 167.716 -24.0406 171.08 -36.3747 182.917L-77.6129 222.541C-88.2028 232.634 -90.3207 248.708 -82.7209 261.293L-73.7507 276.245C-68.7672 284.594 -61.6658 291.447 -53.0693 296.057L95.9364 378.046" stroke="#317041" stroke-width="3" stroke-miterlimit="10"/>
<path d="M506.076 511.87L671.776 519.595C681.12 520.094 690.464 518.474 699.31 515.11L718.621 507.758C727.591 504.269 733.696 495.796 734.069 486.077L736.312 423.402C736.935 404.96 724.725 388.388 706.909 383.653L696.07 380.787C686.976 378.42 677.382 378.42 668.163 380.787L503.833 425.769" stroke="#317041" stroke-width="3" stroke-miterlimit="10"/>
<path d="M251.421 683.199L225.133 843.563C223.264 855.027 223.762 866.864 226.628 878.203L229.244 888.421C232.608 901.629 243.572 911.597 257.152 913.715L318.199 923.06C333.274 925.428 347.851 916.955 353.457 902.875L359.313 888.171C363.05 878.702 364.171 868.484 362.676 858.516L337.261 691.049" stroke="#317041" stroke-width="3" stroke-miterlimit="10"/>
<path d="M112.382 597.721L-20.5522 704.133C-25.6602 708.12 -29.7716 713.229 -32.7617 718.96L-38.3681 729.676C-46.4662 745.252 -44.5974 764.067 -33.5092 777.648L0.752151 819.64C10.8437 831.975 28.0366 835.589 42.2395 828.611L56.567 821.509C64.9143 817.397 71.8912 811.167 76.9992 803.317L170.938 660.771" stroke="#317041" stroke-width="3" stroke-miterlimit="10"/>
<path d="M317.327 261.293L314.835 140.428C314.586 130.335 312.343 120.367 307.983 111.271L297.642 89.3405C292.908 79.2476 285.433 70.7746 276.089 64.7936L212.923 24.173C206.071 19.8119 197.848 17.9429 189.875 19.1889L171.934 21.8056C162.839 23.0516 155.613 29.7802 153.371 38.627L146.519 65.9151C145.522 69.9024 145.273 74.0143 145.896 78.0016L152 120.74C152.872 126.846 155.987 132.329 160.721 136.191L179.783 151.891C188.878 159.367 194.734 169.959 196.104 181.671L208.064 277.117" stroke="#317041" stroke-width="3" stroke-miterlimit="10"/>
<path d="M402.046 659.774L485.644 758.958C489.879 763.942 494.988 768.054 500.843 770.92L527.878 784.252C538.344 789.361 549.93 791.604 561.392 790.483L637.515 783.38C644.99 782.633 651.967 779.268 657.075 773.786L665.173 765.188C674.392 755.344 676.635 740.641 670.655 728.181L668.412 723.321C662.183 709.989 653.337 697.902 642.498 687.81L624.931 671.362C618.328 665.256 609.856 661.767 600.886 661.518L579.333 661.02C567.871 660.771 556.783 656.036 548.435 647.936L477.172 579.031" stroke="#317041" stroke-width="3" stroke-miterlimit="10"/>
<path d="M81.1106 443.338L-41.8565 437.731C-50.453 437.357 -59.174 438.728 -67.1476 441.967L-89.4486 450.69C-101.284 455.425 -111.625 463.275 -119.225 473.492L-155.729 522.586C-164.948 535.046 -169.433 550.372 -168.187 565.823C-167.191 578.906 -158.345 590.121 -145.886 594.108L-126.326 600.338C-121.841 601.833 -116.982 602.332 -112.248 601.958L-76.4916 599.217C-66.2755 598.469 -56.6823 593.859 -49.7055 586.383L-36.6239 572.552C-28.8995 564.328 -18.3096 559.468 -7.09681 558.845L89.707 553.238" stroke="#317041" stroke-width="3" stroke-miterlimit="10"/>
</g>
</svg>
