<svg width="208" height="200" viewBox="0 0 208 200" fill="none" xmlns="http://www.w3.org/2000/svg">
<path d="M39 25H0V62.5C21.539 62.5 39 45.7106 39 25Z" fill="#FFFFF4"/>
<path fill-rule="evenodd" clip-rule="evenodd" d="M65 25C65 59.5178 35.8985 87.5 0 87.5V112.5C35.8985 112.5 65 140.483 65 175H143C143 140.483 172.102 112.5 208 112.5V87.5C172.102 87.5 143 59.5178 143 25H65ZM104 125C118.359 125 130 113.807 130 100C130 86.1929 118.359 75 104 75C89.6406 75 78 86.1929 78 100C78 113.807 89.6406 125 104 125Z" fill="#FFFFF4"/>
<path d="M208 25V62.5C186.46 62.5 169 45.7106 169 25H208Z" fill="#FFFFF4"/>
<path d="M208 175H169C169 154.289 186.46 137.5 208 137.5V175Z" fill="#FFFFF4"/>
<path d="M39 175C39 154.289 21.539 137.5 0 137.5V175H39Z" fill="#FFFFF4"/>
</svg>
