<svg width="714" height="819" viewBox="0 0 714 819" fill="none" xmlns="http://www.w3.org/2000/svg">
<g opacity="0.55">
<path d="M280.28 405.44L32.8029 162.597C23.2795 153.201 18.5178 139.835 20.2373 126.601L22.4859 108.206C24.6022 91.2666 39.0196 78.562 56.0824 78.562H83.7268C95.6311 78.562 107.139 82.9292 116.001 90.7372L333.849 282.629L609.896 32.9049C618.097 25.4939 628.679 21.3914 639.657 21.3914H658.307C669.947 21.3914 680.132 28.9348 683.571 40.0513L697.856 86.767C701.559 98.9422 699.178 112.044 691.507 122.102L491.25 382.81L720.606 620.094C736.479 636.504 745.341 658.473 745.341 681.367V727.818C745.341 747.802 728.146 763.418 708.305 761.565L657.646 756.668C632.779 754.286 609.632 743.037 592.437 725.039L401.307 524.678L232.927 739.994C225.652 749.39 214.806 755.345 202.902 756.404L140.603 762.094C122.35 763.815 106.345 750.051 105.155 731.789L103.567 707.967C101.583 678.985 109.652 650.135 126.318 626.182L280.412 405.308L280.28 405.44Z" stroke="#317041" stroke-width="3" stroke-miterlimit="10"/>
<path d="M320.093 135.6C361.147 135.6 394.429 102.302 394.429 61.2255C394.429 20.1496 361.147 -13.1491 320.093 -13.1491C279.039 -13.1491 245.757 20.1496 245.757 61.2255C245.757 102.302 279.039 135.6 320.093 135.6Z" stroke="#317041" stroke-width="3" stroke-miterlimit="10"/>
<path d="M714.786 383.075C748.682 383.075 776.16 355.582 776.16 321.669C776.16 287.756 748.682 260.264 714.786 260.264C680.891 260.264 653.413 287.756 653.413 321.669C653.413 355.582 680.891 383.075 714.786 383.075Z" stroke="#317041" stroke-width="3" stroke-miterlimit="10"/>
<path d="M80.9491 444.215C114.699 444.215 142.058 416.842 142.058 383.075C142.058 349.307 114.699 321.934 80.9491 321.934C47.1997 321.934 19.8405 349.307 19.8405 383.075C19.8405 416.842 47.1997 444.215 80.9491 444.215Z" stroke="#317041" stroke-width="3" stroke-miterlimit="10"/>
<path d="M409.111 799.017C445.855 799.017 475.642 769.214 475.642 732.45C475.642 695.686 445.855 665.884 409.111 665.884C372.366 665.884 342.579 695.686 342.579 732.45C342.579 769.214 372.366 799.017 409.111 799.017Z" stroke="#317041" stroke-width="3" stroke-miterlimit="10"/>
</g>
</svg>
